<svg xmlns="http://www.w3.org/2000/svg" width="24" height="24" fill="none"><path fill="#fff" d="M12.007 2.161c3.208 0 3.588.014 4.85.07 1.172.052 1.806.25 2.228.413.558.216.961.478 1.379.896.422.422.68.82.895 1.378.165.422.361 1.06.413 2.227.056 1.266.07 1.646.07 4.848 0 3.207-.014 3.587-.07 4.848-.051 1.172-.248 1.805-.413 2.227a3.713 3.713 0 0 1-.895 1.378c-.423.422-.821.68-1.38.896-.421.164-1.06.36-2.227.412-1.267.056-1.646.07-4.85.07-3.208 0-3.588-.014-4.85-.07-1.172-.051-1.805-.248-2.228-.412a3.713 3.713 0 0 1-1.378-.896 3.692 3.692 0 0 1-.896-1.378c-.164-.422-.361-1.06-.413-2.227-.056-1.266-.07-1.646-.07-4.848 0-3.207.014-3.587.07-4.848.052-1.172.249-1.805.413-2.227.215-.558.478-.961.896-1.378.422-.422.82-.68 1.378-.896.423-.164 1.06-.36 2.228-.412 1.262-.057 1.642-.07 4.85-.07Zm0-2.161c-3.26 0-3.668.014-4.948.07-1.276.057-2.153.263-2.913.558a5.86 5.86 0 0 0-2.13 1.388A5.88 5.88 0 0 0 .629 4.14C.333 4.904.127 5.776.07 7.05.014 8.336 0 8.744 0 12.002c0 3.259.014 3.667.07 4.947.057 1.275.263 2.152.558 2.911a5.86 5.86 0 0 0 1.389 2.129 5.87 5.87 0 0 0 2.124 1.383c.765.295 1.637.501 2.913.558 1.28.056 1.689.07 4.948.07 3.26 0 3.668-.014 4.949-.07 1.275-.057 2.152-.263 2.912-.558a5.87 5.87 0 0 0 2.125-1.383 5.867 5.867 0 0 0 1.384-2.124c.295-.764.501-1.636.558-2.912.056-1.28.07-1.688.07-4.946s-.014-3.666-.07-4.946c-.057-1.275-.263-2.152-.558-2.912a5.622 5.622 0 0 0-1.375-2.133A5.87 5.87 0 0 0 19.873.633C19.108.338 18.236.13 16.96.075 15.675.015 15.267 0 12.007 0Z"/><path fill="#fff" d="M12.007 5.837a6.168 6.168 0 0 0-6.168 6.165 6.168 6.168 0 0 0 12.335 0 6.168 6.168 0 0 0-6.167-6.165Zm0 10.165a4 4 0 0 1-4.001-4 4 4 0 0 1 8.001 0 4 4 0 0 1-4 4Zm7.85-10.409a1.44 1.44 0 1 1-2.88-.001 1.44 1.44 0 0 1 2.88.001Z"/></svg>