<svg xmlns="http://www.w3.org/2000/svg" width="17" height="16" fill="none"><path fill="#fff" fill-rule="evenodd" d="M3.86 16V5.204H.215V16H3.86ZM2.038 3.73c1.27 0 2.061-.829 2.061-1.865C4.076.806 3.31 0 2.062 0 .815 0 0 .806 0 1.865 0 2.901.79 3.73 2.014 3.73h.024ZM5.876 16H9.52V9.971c0-.322.024-.645.12-.875.264-.645.863-1.313 1.87-1.313 1.319 0 1.846.99 1.846 2.442V16H17V9.81c0-3.316-1.798-4.86-4.195-4.86-1.966 0-2.83 1.083-3.31 1.82h.025V5.204H5.876c.048 1.013 0 10.796 0 10.796Z" clip-rule="evenodd"/></svg>